<svg width="154" height="32" viewBox="0 0 154 32" fill="none" xmlns="http://www.w3.org/2000/svg">
<path d="M20.5 10L9.5 21L4.5 16" stroke="#15B2F5" stroke-width="2" stroke-linecap="round" stroke-linejoin="round"/>
<path d="M34.26 24V9.1H43.46V10.6H35.86V15.78H42.86V17.28H35.86V24H34.26ZM45.0556 24V13.28H46.5556V15.04L46.3556 14.78C46.609 14.2733 46.989 13.8733 47.4956 13.58C48.0156 13.2867 48.6423 13.14 49.3756 13.14H50.0556V14.64H49.1156C48.3423 14.64 47.7223 14.88 47.2556 15.36C46.789 15.84 46.5556 16.52 46.5556 17.4V24H45.0556ZM56.6934 24.24C55.6934 24.24 54.7868 24 53.9734 23.52C53.1734 23.0267 52.5401 22.3533 52.0734 21.5C51.6068 20.6467 51.3734 19.68 51.3734 18.6C51.3734 17.52 51.6001 16.5667 52.0534 15.74C52.5068 14.9 53.1201 14.24 53.8934 13.76C54.6801 13.28 55.5601 13.04 56.5334 13.04C57.3068 13.04 57.9934 13.1867 58.5934 13.48C59.2068 13.76 59.7268 14.1467 60.1534 14.64C60.5801 15.12 60.9068 15.6667 61.1334 16.28C61.3601 16.88 61.4734 17.5 61.4734 18.14C61.4734 18.2733 61.4668 18.4267 61.4534 18.6C61.4401 18.76 61.4201 18.9267 61.3934 19.1H52.3334V17.7H60.5334L59.8134 18.3C59.9334 17.5667 59.8468 16.9133 59.5534 16.34C59.2734 15.7533 58.8668 15.2933 58.3334 14.96C57.8001 14.6133 57.2001 14.44 56.5334 14.44C55.8668 14.44 55.2468 14.6133 54.6734 14.96C54.1134 15.3067 53.6734 15.7933 53.3534 16.42C53.0334 17.0333 52.9068 17.7667 52.9734 18.62C52.9068 19.4733 53.0401 20.22 53.3734 20.86C53.7201 21.4867 54.1868 21.9733 54.7734 22.32C55.3734 22.6667 56.0134 22.84 56.6934 22.84C57.4801 22.84 58.1401 22.6533 58.6734 22.28C59.2068 21.9067 59.6401 21.44 59.9734 20.88L61.2534 21.56C61.0401 22.04 60.7134 22.4867 60.2734 22.9C59.8334 23.3 59.3068 23.6267 58.6934 23.88C58.0934 24.12 57.4268 24.24 56.6934 24.24ZM68.9981 24.24C67.9981 24.24 67.0915 24 66.2781 23.52C65.4781 23.0267 64.8448 22.3533 64.3781 21.5C63.9115 20.6467 63.6781 19.68 63.6781 18.6C63.6781 17.52 63.9048 16.5667 64.3581 15.74C64.8115 14.9 65.4248 14.24 66.1981 13.76C66.9848 13.28 67.8648 13.04 68.8381 13.04C69.6115 13.04 70.2981 13.1867 70.8981 13.48C71.5115 13.76 72.0315 14.1467 72.4581 14.64C72.8848 15.12 73.2115 15.6667 73.4381 16.28C73.6648 16.88 73.7781 17.5 73.7781 18.14C73.7781 18.2733 73.7715 18.4267 73.7581 18.6C73.7448 18.76 73.7248 18.9267 73.6981 19.1H64.6381V17.7H72.8381L72.1181 18.3C72.2381 17.5667 72.1515 16.9133 71.8581 16.34C71.5781 15.7533 71.1715 15.2933 70.6381 14.96C70.1048 14.6133 69.5048 14.44 68.8381 14.44C68.1715 14.44 67.5515 14.6133 66.9781 14.96C66.4181 15.3067 65.9781 15.7933 65.6581 16.42C65.3381 17.0333 65.2115 17.7667 65.2781 18.62C65.2115 19.4733 65.3448 20.22 65.6781 20.86C66.0248 21.4867 66.4915 21.9733 67.0781 22.32C67.6781 22.6667 68.3181 22.84 68.9981 22.84C69.7848 22.84 70.4448 22.6533 70.9781 22.28C71.5115 21.9067 71.9448 21.44 72.2781 20.88L73.5581 21.56C73.3448 22.04 73.0181 22.4867 72.5781 22.9C72.1381 23.3 71.6115 23.6267 70.9981 23.88C70.3981 24.12 69.7315 24.24 68.9981 24.24ZM90.4597 24.24C89.4197 24.24 88.4464 24.0533 87.5397 23.68C86.6464 23.2933 85.8597 22.76 85.1797 22.08C84.4997 21.3867 83.9664 20.5733 83.5797 19.64C83.193 18.6933 82.9997 17.66 82.9997 16.54C82.9997 15.42 83.193 14.3933 83.5797 13.46C83.9664 12.5133 84.4997 11.7 85.1797 11.02C85.8597 10.3267 86.6464 9.79333 87.5397 9.42C88.4464 9.04667 89.4197 8.86 90.4597 8.86C91.4997 8.86 92.4664 9.05333 93.3597 9.44C94.2664 9.81333 95.0597 10.3467 95.7397 11.04C96.4197 11.72 96.953 12.5267 97.3397 13.46C97.7264 14.3933 97.9197 15.42 97.9197 16.54C97.9197 17.66 97.7264 18.6933 97.3397 19.64C96.953 20.5733 96.4197 21.3867 95.7397 22.08C95.0597 22.76 94.2664 23.2933 93.3597 23.68C92.4664 24.0533 91.4997 24.24 90.4597 24.24ZM90.4597 22.74C91.3264 22.74 92.113 22.58 92.8197 22.26C93.5397 21.94 94.1597 21.4933 94.6797 20.92C95.1997 20.3467 95.5997 19.6867 95.8797 18.94C96.173 18.1933 96.3197 17.3933 96.3197 16.54C96.3197 15.7 96.173 14.9067 95.8797 14.16C95.5997 13.4133 95.1997 12.7533 94.6797 12.18C94.1597 11.6067 93.5397 11.16 92.8197 10.84C92.113 10.52 91.3264 10.36 90.4597 10.36C89.593 10.36 88.7997 10.52 88.0797 10.84C87.373 11.16 86.7597 11.6067 86.2397 12.18C85.7197 12.7533 85.313 13.4133 85.0197 14.16C84.7397 14.9067 84.5997 15.7 84.5997 16.54C84.5997 17.3933 84.7397 18.1933 85.0197 18.94C85.313 19.6867 85.7197 20.3467 86.2397 20.92C86.7597 21.4933 87.3797 21.94 88.0997 22.26C88.8197 22.58 89.6064 22.74 90.4597 22.74ZM94.7597 25.8L89.4597 18.04H91.2797L96.5797 25.8H94.7597ZM104.578 24.24C103.832 24.24 103.152 24.0667 102.538 23.72C101.925 23.36 101.438 22.8667 101.078 22.24C100.732 21.6 100.558 20.8667 100.558 20.04V13.28H102.058V19.86C102.058 20.4333 102.172 20.94 102.398 21.38C102.638 21.8067 102.965 22.14 103.378 22.38C103.805 22.62 104.292 22.74 104.838 22.74C105.385 22.74 105.872 22.62 106.298 22.38C106.725 22.1267 107.058 21.7733 107.298 21.32C107.538 20.8533 107.658 20.3 107.658 19.66V13.28H109.158V24H107.658V21.92L107.998 22C107.745 22.6933 107.312 23.24 106.698 23.64C106.085 24.04 105.378 24.24 104.578 24.24ZM117.263 24.24C116.25 24.24 115.33 24 114.503 23.52C113.676 23.0267 113.016 22.36 112.523 21.52C112.043 20.6667 111.803 19.7 111.803 18.62C111.803 17.5533 112.043 16.6 112.523 15.76C113.003 14.92 113.65 14.26 114.463 13.78C115.29 13.2867 116.223 13.04 117.263 13.04C118.303 13.04 119.23 13.28 120.043 13.76C120.87 14.24 121.516 14.9 121.983 15.74C122.463 16.58 122.703 17.54 122.703 18.62C122.703 19.7133 122.456 20.6867 121.963 21.54C121.47 22.38 120.81 23.04 119.983 23.52C119.17 24 118.263 24.24 117.263 24.24ZM117.263 22.74C117.983 22.74 118.63 22.56 119.203 22.2C119.79 21.84 120.25 21.3467 120.583 20.72C120.93 20.0933 121.103 19.3933 121.103 18.62C121.103 17.8467 120.93 17.1533 120.583 16.54C120.25 15.9267 119.79 15.44 119.203 15.08C118.63 14.72 117.983 14.54 117.263 14.54C116.543 14.54 115.89 14.72 115.303 15.08C114.73 15.44 114.27 15.9267 113.923 16.54C113.576 17.1533 113.403 17.8467 113.403 18.62C113.403 19.3933 113.576 20.0933 113.923 20.72C114.27 21.3467 114.73 21.84 115.303 22.2C115.89 22.56 116.543 22.74 117.263 22.74ZM129.253 24.12C128.293 24.12 127.553 23.84 127.033 23.28C126.513 22.72 126.253 21.92 126.253 20.88V14.78H124.273V13.28H124.773C125.227 13.28 125.587 13.1333 125.853 12.84C126.12 12.5333 126.253 12.1533 126.253 11.7V10.8H127.753V13.28H130.113V14.78H127.753V20.88C127.753 21.24 127.807 21.56 127.913 21.84C128.02 22.1067 128.2 22.32 128.453 22.48C128.72 22.64 129.073 22.72 129.513 22.72C129.62 22.72 129.747 22.7133 129.893 22.7C130.04 22.6867 130.167 22.6733 130.273 22.66V24C130.113 24.04 129.933 24.0667 129.733 24.08C129.533 24.1067 129.373 24.12 129.253 24.12ZM137.397 24.24C136.397 24.24 135.49 24 134.677 23.52C133.877 23.0267 133.243 22.3533 132.777 21.5C132.31 20.6467 132.077 19.68 132.077 18.6C132.077 17.52 132.303 16.5667 132.757 15.74C133.21 14.9 133.823 14.24 134.597 13.76C135.383 13.28 136.263 13.04 137.237 13.04C138.01 13.04 138.697 13.1867 139.297 13.48C139.91 13.76 140.43 14.1467 140.857 14.64C141.283 15.12 141.61 15.6667 141.837 16.28C142.063 16.88 142.177 17.5 142.177 18.14C142.177 18.2733 142.17 18.4267 142.157 18.6C142.143 18.76 142.123 18.9267 142.097 19.1H133.037V17.7H141.237L140.517 18.3C140.637 17.5667 140.55 16.9133 140.257 16.34C139.977 15.7533 139.57 15.2933 139.037 14.96C138.503 14.6133 137.903 14.44 137.237 14.44C136.57 14.44 135.95 14.6133 135.377 14.96C134.817 15.3067 134.377 15.7933 134.057 16.42C133.737 17.0333 133.61 17.7667 133.677 18.62C133.61 19.4733 133.743 20.22 134.077 20.86C134.423 21.4867 134.89 21.9733 135.477 22.32C136.077 22.6667 136.717 22.84 137.397 22.84C138.183 22.84 138.843 22.6533 139.377 22.28C139.91 21.9067 140.343 21.44 140.677 20.88L141.957 21.56C141.743 22.04 141.417 22.4867 140.977 22.9C140.537 23.3 140.01 23.6267 139.397 23.88C138.797 24.12 138.13 24.24 137.397 24.24ZM148.541 24.24C147.515 24.24 146.615 23.98 145.841 23.46C145.068 22.94 144.508 22.2333 144.161 21.34L145.421 20.74C145.728 21.3933 146.155 21.9133 146.701 22.3C147.261 22.6867 147.875 22.88 148.541 22.88C149.181 22.88 149.721 22.7267 150.161 22.42C150.601 22.1 150.821 21.6867 150.821 21.18C150.821 20.8067 150.715 20.5133 150.501 20.3C150.288 20.0733 150.041 19.9 149.761 19.78C149.481 19.66 149.235 19.5733 149.021 19.52L147.481 19.08C146.495 18.8 145.781 18.4067 145.341 17.9C144.901 17.3933 144.681 16.8067 144.681 16.14C144.681 15.5133 144.841 14.9667 145.161 14.5C145.481 14.0333 145.915 13.6733 146.461 13.42C147.008 13.1667 147.615 13.04 148.281 13.04C149.188 13.04 150.008 13.28 150.741 13.76C151.488 14.2267 152.015 14.88 152.321 15.72L151.041 16.32C150.775 15.72 150.388 15.2533 149.881 14.92C149.388 14.5733 148.835 14.4 148.221 14.4C147.621 14.4 147.141 14.5533 146.781 14.86C146.421 15.1667 146.241 15.5533 146.241 16.02C146.241 16.38 146.335 16.6667 146.521 16.88C146.708 17.0933 146.921 17.2533 147.161 17.36C147.415 17.4667 147.635 17.5467 147.821 17.6L149.601 18.12C150.468 18.3733 151.141 18.7667 151.621 19.3C152.115 19.8333 152.361 20.46 152.361 21.18C152.361 21.7667 152.195 22.2933 151.861 22.76C151.541 23.2267 151.095 23.5933 150.521 23.86C149.948 24.1133 149.288 24.24 148.541 24.24Z" fill="#15B2F5"/>
</svg>
